<?xml version="1.0" encoding="UTF-8" standalone="no"?>
<!-- Created with Inkscape (http://www.inkscape.org/) -->

<svg
   xmlns:dc="http://purl.org/dc/elements/1.1/"
   xmlns:cc="http://creativecommons.org/ns#"
   xmlns:rdf="http://www.w3.org/1999/02/22-rdf-syntax-ns#"
   xmlns:svg="http://www.w3.org/2000/svg"
   xmlns="http://www.w3.org/2000/svg"
   xmlns:sodipodi="http://sodipodi.sourceforge.net/DTD/sodipodi-0.dtd"
   xmlns:inkscape="http://www.inkscape.org/namespaces/inkscape"
   width="43.542858mm"
   height="43.542858mm"
   viewBox="0 0 43.542858 43.542858"
   version="1.1"
   id="svg8"
   inkscape:version="0.92.0 r15299"
   sodipodi:docname="test.html">
  <defs
     id="defs2">
    <filter
       style="color-interpolation-filters:sRGB"
       inkscape:label="Drop Shadow"
       id="filter4498">
      <feFlood
         flood-opacity="0.501961"
         flood-color="rgb(0,0,0)"
         result="flood"
         id="feFlood4488" />
      <feComposite
         in="flood"
         in2="SourceGraphic"
         operator="in"
         result="composite1"
         id="feComposite4490" />
      <feGaussianBlur
         in="composite1"
         stdDeviation="1.8700000000000001"
         result="blur"
         id="feGaussianBlur4492" />
      <feOffset
         dx="0"
         dy="0"
         result="offset"
         id="feOffset4494" />
      <feComposite
         in="SourceGraphic"
         in2="offset"
         operator="over"
         result="composite2"
         id="feComposite4496" />
    </filter>
  </defs>
  <sodipodi:namedview
     id="base"
     pagecolor="#ffffff"
     bordercolor="#666666"
     borderopacity="1.0"
     inkscape:pageopacity="0.0"
     inkscape:pageshadow="2"
     inkscape:zoom="3.959798"
     inkscape:cx="28.346396"
     inkscape:cy="41.450381"
     inkscape:document-units="mm"
     inkscape:current-layer="layer1"
     showgrid="false"
     fit-margin-top="0"
     fit-margin-left="0"
     fit-margin-right="0"
     fit-margin-bottom="0" />
  <metadata
     id="metadata5">
    <rdf:RDF>
      <cc:Work
         rdf:about="">
        <dc:format>image/svg+xml</dc:format>
        <dc:type
           rdf:resource="http://purl.org/dc/dcmitype/StillImage" />
        <dc:title />
      </cc:Work>
    </rdf:RDF>
  </metadata>
  <g
     inkscape:label="Layer 1"
     inkscape:groupmode="layer"
     id="layer1"
     transform="translate(-22.073806,-36.347617)">
    <circle
       style="opacity:1;fill:#000000;fill-opacity:0.50196078;fill-rule:nonzero;stroke:#ffffff;stroke-width:2;stroke-linecap:butt;stroke-linejoin:round;stroke-miterlimit:10;stroke-dasharray:none;stroke-dashoffset:0;stroke-opacity:1;filter:url(#filter4498)"
       id="path4485"
       cx="43.845234"
       cy="58.119045"
       r="18.142857" />
    <g
       aria-label="mm"
       style="font-style:normal;font-weight:normal;font-size:10.58333302px;line-height:6.61458302px;font-family:Sans;letter-spacing:0px;word-spacing:0px;fill:#ffffff;fill-opacity:1;stroke:none;stroke-width:0.26458332px;stroke-linecap:butt;stroke-linejoin:miter;stroke-opacity:1"
       id="text4496">
      <path
         d="m 45.590544,66.963694 v 1.919607 h -0.872988 v -1.352889 q 0,-0.197749 -0.0096,-0.335208 -0.0096,-0.139871 -0.05305,-0.226687 -0.04341,-0.08682 -0.132637,-0.125402 -0.08682,-0.041 -0.245979,-0.041 -0.127813,0 -0.248392,0.05305 -0.120578,0.05064 -0.217041,0.108521 v 1.919607 h -0.868164 v -2.70819 h 0.868164 v 0.299034 q 0.224276,-0.176044 0.429259,-0.274918 0.204983,-0.09887 0.453375,-0.09887 0.267684,0 0.472667,0.120578 0.204983,0.118167 0.320738,0.349677 0.260449,-0.219452 0.506429,-0.344854 0.24598,-0.125401 0.482314,-0.125401 0.438905,0 0.665592,0.26286 0.229099,0.262861 0.229099,0.757232 v 1.762856 h -0.872987 v -1.352889 q 0,-0.20016 -0.0096,-0.33762 -0.0072,-0.137459 -0.05064,-0.224275 -0.041,-0.08682 -0.130225,-0.125402 -0.08923,-0.041 -0.250803,-0.041 -0.108521,0 -0.212218,0.03858 -0.103697,0.03617 -0.253214,0.12299 z"
         style="font-style:normal;font-variant:normal;font-weight:bold;font-stretch:normal;font-size:4.93888903px;font-family:Verdana;-inkscape-font-specification:'Verdana, Bold';font-variant-ligatures:normal;font-variant-caps:normal;font-variant-numeric:normal;font-feature-settings:normal;text-align:start;writing-mode:lr-tb;text-anchor:start;fill:#ffffff;stroke-width:0.26458332px"
         id="path4520"
         inkscape:connector-curvature="0" />
      <path
         d="m 50.818821,66.963694 v 1.919607 h -0.872987 v -1.352889 q 0,-0.197749 -0.0096,-0.335208 -0.0096,-0.139871 -0.05305,-0.226687 -0.04341,-0.08682 -0.132636,-0.125402 -0.08682,-0.041 -0.24598,-0.041 -0.127813,0 -0.248392,0.05305 -0.120578,0.05064 -0.217041,0.108521 v 1.919607 H 48.17092 v -2.70819 h 0.868164 v 0.299034 q 0.224276,-0.176044 0.429259,-0.274918 0.204983,-0.09887 0.453375,-0.09887 0.267684,0 0.472667,0.120578 0.204983,0.118167 0.320738,0.349677 0.26045,-0.219452 0.506429,-0.344854 0.24598,-0.125401 0.482314,-0.125401 0.438905,0 0.665592,0.26286 0.229099,0.262861 0.229099,0.757232 v 1.762856 H 51.72557 v -1.352889 q 0,-0.20016 -0.0096,-0.33762 -0.0072,-0.137459 -0.05064,-0.224275 -0.041,-0.08682 -0.130225,-0.125402 -0.08923,-0.041 -0.250803,-0.041 -0.10852,0 -0.212218,0.03858 -0.103697,0.03617 -0.253214,0.12299 z"
         style="font-style:normal;font-variant:normal;font-weight:bold;font-stretch:normal;font-size:4.93888903px;font-family:Verdana;-inkscape-font-specification:'Verdana, Bold';font-variant-ligatures:normal;font-variant-caps:normal;font-variant-numeric:normal;font-feature-settings:normal;text-align:start;writing-mode:lr-tb;text-anchor:start;fill:#ffffff;stroke-width:0.26458332px"
         id="path4522"
         inkscape:connector-curvature="0" />
    </g>
    <path
       style="opacity:1;fill:#ffffff;fill-opacity:1;fill-rule:nonzero;stroke:none;stroke-width:2;stroke-linecap:butt;stroke-linejoin:round;stroke-miterlimit:10;stroke-dasharray:none;stroke-dashoffset:0;stroke-opacity:1"
       d="m 31.660098,65.923078 6.008779,5.281574 1.320309,-1.502098 -2.253147,-1.980462 15.720878,-17.885444 2.253147,1.980463 1.320308,-1.502097 L 50.021593,45.03344 48.701285,46.535537 50.954432,48.516 35.233553,66.401443 32.980406,64.42098 Z"
       id="rect4500"
       inkscape:connector-curvature="0" />
  </g>
</svg>
