<?xml version="1.0" encoding="UTF-8" standalone="no"?>
<!-- Created with Inkscape (http://www.inkscape.org/) -->

<svg
   xmlns:dc="http://purl.org/dc/elements/1.1/"
   xmlns:cc="http://creativecommons.org/ns#"
   xmlns:rdf="http://www.w3.org/1999/02/22-rdf-syntax-ns#"
   xmlns:svg="http://www.w3.org/2000/svg"
   xmlns="http://www.w3.org/2000/svg"
   xmlns:sodipodi="http://sodipodi.sourceforge.net/DTD/sodipodi-0.dtd"
   xmlns:inkscape="http://www.inkscape.org/namespaces/inkscape"
   width="43.542858mm"
   height="43.542858mm"
   viewBox="0 0 43.542858 43.542858"
   version="1.1"
   id="svg8"
   inkscape:version="0.92.0 r15299"
   sodipodi:docname="link.svg">
  <defs
     id="defs2">
    <filter
       style="color-interpolation-filters:sRGB"
       inkscape:label="Drop Shadow"
       id="filter4498">
      <feFlood
         flood-opacity="0.501961"
         flood-color="rgb(0,0,0)"
         result="flood"
         id="feFlood4488" />
      <feComposite
         in="flood"
         in2="SourceGraphic"
         operator="in"
         result="composite1"
         id="feComposite4490" />
      <feGaussianBlur
         in="composite1"
         stdDeviation="1.8700000000000001"
         result="blur"
         id="feGaussianBlur4492" />
      <feOffset
         dx="0"
         dy="0"
         result="offset"
         id="feOffset4494" />
      <feComposite
         in="SourceGraphic"
         in2="offset"
         operator="over"
         result="composite2"
         id="feComposite4496" />
    </filter>
  </defs>
  <sodipodi:namedview
     id="base"
     pagecolor="#ffffff"
     bordercolor="#666666"
     borderopacity="1.0"
     inkscape:pageopacity="0.0"
     inkscape:pageshadow="2"
     inkscape:zoom="3.959798"
     inkscape:cx="-14.711356"
     inkscape:cy="73.785215"
     inkscape:document-units="mm"
     inkscape:current-layer="layer1"
     showgrid="false"
     fit-margin-top="0"
     fit-margin-left="0"
     fit-margin-right="0"
     fit-margin-bottom="0" />
  <metadata
     id="metadata5">
    <rdf:RDF>
      <cc:Work
         rdf:about="">
        <dc:format>image/svg+xml</dc:format>
        <dc:type
           rdf:resource="http://purl.org/dc/dcmitype/StillImage" />
        <dc:title></dc:title>
      </cc:Work>
    </rdf:RDF>
  </metadata>
  <g
     inkscape:label="Layer 1"
     inkscape:groupmode="layer"
     id="layer1"
     transform="translate(-22.073806,-36.347617)">
    <circle
       style="opacity:1;fill:#000000;fill-opacity:0.25098039;fill-rule:nonzero;stroke:#ffffff;stroke-width:2;stroke-linecap:butt;stroke-linejoin:round;stroke-miterlimit:10;stroke-dasharray:none;stroke-dashoffset:0;stroke-opacity:1;filter:url(#filter4498)"
       id="path4485"
       cx="43.845234"
       cy="58.119045"
       r="18.142857" />
    <g
       id="g4508"
       style="fill:#ffffff;fill-opacity:1"
       transform="matrix(0.8899565,0,0,0.8899565,30.495665,44.77061)">
      <path
         id="path4504"
         d="m 20.437,2.69 c -3.37,0 -5.778,3.05 -8.186,5.297 0.322,0 0.804,-0.16 1.285,-0.16 0.803,0 1.605,0.16 2.408,0.48 1.284,-1.283 2.568,-2.727 4.494,-2.727 0.963,0 2.087,0.48 2.89,1.123 1.605,1.605 1.605,4.174 0,5.78 l -4.174,4.172 c -0.642,0.642 -1.926,1.124 -2.89,1.124 -2.246,0 -3.37,-1.446 -4.172,-3.212 l -2.086,2.087 c 1.284,2.408 3.21,4.173 6.1,4.173 1.926,0 3.69,-0.802 4.815,-2.086 l 4.172,-4.174 c 1.445,-1.444 2.408,-3.21 2.408,-5.297 -0.32,-3.53 -3.53,-6.58 -7.063,-6.58 z"
         inkscape:connector-curvature="0"
         style="fill:#ffffff;fill-opacity:1" />
      <path
         id="path4506"
         d="m 13.535,22.113 -1.444,1.444 c -0.64,0.642 -1.925,1.124 -2.89,1.124 -0.962,0 -2.085,-0.48 -2.888,-1.123 -1.605,-1.605 -1.605,-4.334 0,-5.778 l 4.174,-4.175 c 0.642,-0.642 1.926,-1.123 2.89,-1.123 2.246,0 3.37,1.605 4.172,3.21 l 2.087,-2.087 c -1.284,-2.407 -3.21,-4.173 -6.1,-4.173 -1.926,0 -3.692,0.803 -4.815,2.087 L 4.547,15.69 c -2.73,2.73 -2.73,7.063 0,9.63 2.568,2.57 7.062,2.73 9.47,0 l 3.05,-3.05 c -0.482,0.162 -0.963,0.162 -1.445,0.162 -0.803,0 -1.445,0 -2.087,-0.32 z"
         inkscape:connector-curvature="0"
         style="fill:#ffffff;fill-opacity:1" />
    </g>
  </g>
</svg>
